<svg width="0" height="0" class="hidden">
  <symbol xmlns="http://www.w3.org/2000/svg" viewBox="0 0 512.5 512.5" id="fruits">
    <path clip-rule="evenodd" d="M8.838 167.802c16.895-7.2 60.208-22.734 82.263-16.384 27.241 7.795 36.822 30.813 30.189 53.915-6.604 23.075-26.93 37.532-54.171 29.708-21.941-6.293-50.09-42.407-61.088-57.488-3.599-4.932-2.58-7.426 2.807-9.751z" fill="#b3e59f" fill-rule="evenodd" stroke="#b3e59f" stroke-miterlimit="10"></path>
    <path clip-rule="evenodd" d="M64.653 151.105c9.949-1.502 19.332-1.757 26.447.312 27.241 7.795 36.822 30.813 30.189 53.915-6.519 22.734-26.307 37.078-52.896 30.076 13.578-4.195 23.358-15.392 27.581-30.076 7.23-25.256-5.668-47.905-31.321-54.227z" fill="#95d6a4" fill-rule="evenodd" stroke="#95d6a4" stroke-miterlimit="10"></path>
    <path d="M154.625 300.381c.964 4.054-1.559 8.135-5.612 9.099a7.578 7.578 0 01-9.128-5.612c-.027-.142-7.426-29.991-.992-62.675-24.945-40.338-82.547-48.048-82.717-48.048-4.139-.595-7.029-4.422-6.463-8.561.567-4.139 4.394-7.03 8.561-6.463.17.028 54.709 7.286 85.862 44.533 6.69-17.688 18.567-34.725 38.978-46.886a7.575 7.575 0 0110.403 2.607c2.154 3.572.964 8.25-2.607 10.376-21.63 12.897-31.947 32.542-36.455 51.79a7.584 7.584 0 01-.425 1.928c-6.406 29.65.567 57.77.595 57.912z" fill="#78c2a4" stroke="#78c2a4" stroke-miterlimit="10"></path>
    <g clip-rule="evenodd" fill-rule="evenodd">
      <path d="M141.926 295.93c-16.951-17.404-58.224-47.481-113.897 12.643-71.236 76.962 22.024 237.122 111.97 197.777 6.322-2.75 8.221-2.75 14.599.028 89.86 39.345 183.093-120.871 111.886-197.805-55.729-60.18-97.259-30.275-113.926-12.586-4.14 4.366-6.465 4.224-10.632-.057z" fill="#ee6161"></path>
      <path d="M241.112 488.151c47.821-42.095 72.284-128.894 25.37-179.578-10.347-11.169-20.211-19.248-29.509-24.86-11.793 19.276-22.253 39.147-29.056 60.833-12.02 38.297-9.071 78.379 10.686 113.53a146.57 146.57 0 0022.509 30.075z" fill="#e94444"></path>
      <path d="M363.202 512.444c-89.01 0-158.289-73.759-131.132-160.302 14.286-45.497 47.14-82.036 56.552-105.507 25.059-62.505 13.861-152.393 74.58-154.349 60.748 1.956 49.523 91.844 74.609 154.349 9.411 23.472 42.237 60.011 56.523 105.507 27.187 86.543-42.095 160.302-131.132 160.302z" fill="#ffe07d"></path>
      <path d="M363.202 512.444c-4.252 0-8.475-.17-12.642-.51 82.773-6.604 144.314-77.415 118.461-159.791-14.287-45.497-47.141-82.036-56.552-105.507-23.16-57.743-15.365-138.872-61.909-152.421 3.826-1.106 8.022-1.758 12.642-1.928 60.748 1.956 49.523 91.844 74.609 154.349 9.411 23.472 42.237 60.011 56.523 105.507 27.187 86.542-42.095 160.301-131.132 160.301z" fill="#ffd064"></path>
    </g>
    <path d="M370.176 96.566a7.584 7.584 0 01-9.128 5.642c-4.081-.964-6.633-5.075-5.641-9.157.028-.142 13.691-56.013-24.011-78.464a7.575 7.575 0 01-2.607-10.404c2.154-3.571 6.803-4.762 10.374-2.608 47.368 28.234 31.07 94.793 31.013 94.991z" fill="#78c2a4" stroke="#78c2a4" stroke-miterlimit="10"></path>
    <path clip-rule="evenodd" d="M508.82 209.217c-4.933-24.945-22.054-100.32-50.344-124.301-33.393-28.347-71.208-20.949-95.275 7.37-24.039 28.347-25.201 66.871 8.192 95.218 28.348 24.066 105.395 28.857 130.82 29.48 5.898.142 7.855-1.474 6.607-7.767z" fill="#b3e59f" fill-rule="evenodd" stroke="#b3e59f" stroke-miterlimit="10"></path>
    <path clip-rule="evenodd" d="M508.82 209.217c-4.933-24.945-22.054-100.32-50.344-124.301-18.767-15.959-38.948-20.58-57.317-16.555 10.743 2.353 21.572 7.71 32.004 16.555 28.262 23.981 45.383 99.356 50.315 124.301.736 3.686.368 5.755-1.219 6.832 8.107.539 15.023.822 19.955.935 5.897.142 7.854-1.474 6.606-7.767z" fill="#95d6a4" fill-rule="evenodd" stroke="#95d6a4" stroke-miterlimit="10"></path>
  </symbol>
  <symbol xmlns="http://www.w3.org/2000/svg" viewBox="0 0 512 512" id="juice">
    <path clip-rule="evenodd" d="M84.933 198.411h342.135V447.44H84.933z" fill="#f9f7f8" fill-rule="evenodd"></path>
    <path d="M312.231 138.898h-30.31l-.029-101.717c0-5.162 2.538-9.724 6.475-12.461l27.316-22.643c3.85-3.193 8.213-2.622 11.207 1.141l8.869 11.179c3.478 4.362 2.709 8.212-1.17 11.434L312.29 44.452z" fill="#bed8fb"></path>
    <path clip-rule="evenodd" d="M162.783 208.733h264.284v-66.811c0-4.934-2.882-8.042-8.069-8.042H172.849zM167.83 512h251.168c5.188 0 8.069-2.738 8.069-8.07v-66.813H167.83z" fill="#f37c7c" fill-rule="evenodd"></path>
    <path clip-rule="evenodd" d="M401.916 208.733h25.151v-66.811c0-4.934-2.882-8.042-8.069-8.042h-25.15c5.188 0 8.068 3.108 8.068 8.042zM393.848 512h25.15c5.188 0 8.069-2.738 8.069-8.07v-66.813h-25.151v66.813c0 5.332-2.881 8.07-8.068 8.07z" fill="#ee6161" fill-rule="evenodd"></path>
    <path clip-rule="evenodd" d="M401.916 208.733h25.151v228.384h-25.151z" fill="#ebe8fa" fill-rule="evenodd"></path>
    <path d="M271.598 354.193a7.538 7.538 0 01-9.836 4.163c-3.852-1.569-5.705-5.96-4.138-9.809l25.752-66.3c1.567-3.876 5.96-5.731 9.807-4.164 3.88 1.57 5.735 5.961 4.166 9.811zm15.656-86.147c-1.57-3.85.312-8.241 4.164-9.809 3.85-1.568 8.239.313 9.807 4.164l43.204 85.063c1.567 3.848-.315 8.24-4.163 9.809-3.85 1.568-8.242-.313-9.811-4.164z" fill="#78c2a4" stroke="#78c2a4" stroke-miterlimit="10"></path>
    <g clip-rule="evenodd" fill-rule="evenodd">
      <path d="M255.115 346.208c15.541 0 28.115 12.576 28.115 28.117 0 15.512-12.574 28.117-28.115 28.117-15.512 0-28.115-12.605-28.115-28.117 0-15.541 12.603-28.117 28.115-28.117zm91.936 0c15.514 0 28.088 12.576 28.088 28.117 0 15.512-12.574 28.117-28.088 28.117-15.542 0-28.116-12.605-28.116-28.117 0-15.541 12.574-28.117 28.116-28.117z" fill="#ee6161"></path>
      <path d="M255.115 346.208c15.541 0 28.115 12.576 28.115 28.117 0 15.512-12.574 28.117-28.115 28.117a28.265 28.265 0 01-12.574-2.966c9.213-4.62 15.541-14.144 15.541-25.151 0-11.008-6.328-20.531-15.541-25.15a27.856 27.856 0 0112.574-2.967zm91.936 0c15.514 0 28.088 12.576 28.088 28.117 0 15.512-12.574 28.117-28.088 28.117a28.08 28.08 0 01-12.574-2.966c9.209-4.62 15.512-14.144 15.512-25.151 0-11.008-6.303-20.531-15.512-25.15 3.762-1.912 8.041-2.967 12.574-2.967z" fill="#e94444"></path>
      <path d="M227.941 255.071c11.007-4.706 39.151-14.8 53.522-10.664 17.681 5.076 23.926 20.019 19.62 35.046-4.306 15.028-17.538 24.409-35.216 19.333-14.289-4.105-32.566-27.574-39.754-37.383-2.307-3.195-1.679-4.849 1.828-6.332z" fill="#b3e59f" stroke="#b3e59f" stroke-miterlimit="10"></path>
      <path d="M258.768 245.205c8.466-1.768 16.767-2.51 22.696-.798 17.681 5.076 23.926 20.019 19.62 35.046-4.306 15.028-17.538 24.409-35.216 19.333-1.228-.341-2.481-.855-3.738-1.454 6.676-3.48 11.492-9.867 13.804-17.879 4.105-14.287-1.371-28.544-17.166-34.248z" fill="#95d6a4" stroke="#95d6a4" stroke-miterlimit="10"></path>
      <path d="M84.933 208.733h87.916v228.384H84.933z" fill="#ebe8fa"></path>
      <path d="M147.695 208.733h25.153v228.384h-25.153z" fill="#dddaec"></path>
      <path d="M172.849 208.733H84.933v-74.854l44.056 5.019 43.86-5.019zm0 228.384H84.933v66.813c0 5.703 2.825 8.07 8.042 8.07h79.874z" fill="#ee6161"></path>
      <path d="M147.695 437.117h25.153V512h-25.153zm0-228.384h25.154v-74.854l-25.154 5.019z" fill="#e94444"></path>
      <path d="M84.933 133.879l37.842 32.193c4.418 3.764 7.925 3.708 12.233 0l37.841-32.193z" fill="#ebe8fa"></path>
    </g>
  </symbol>
  <symbol xmlns="http://www.w3.org/2000/svg" viewBox="0 0 512 512" id="candy">
    <g clip-rule="evenodd" fill-rule="evenodd">
      <path d="M84.694 350.061L5.662 380.93c-5.925 2.296-8.362 4.819-1.531 8.589 7.512 4.111 18 4.734 23.982 10.687 6.887 6.917 6.66 20.921 13.579 27.809 6.886 6.916 20.92 6.69 27.807 13.607 6.889 6.888 6.689 20.891 13.578 27.808 6.916 6.888 20.92 6.689 27.809 13.578 5.924 5.897 6.604 17.037 11.028 24.435 1.981 3.345 5.071 6.237 7.056 1.105l32.091-82.121-32.627-45.723zM351.098 83.628l29.849-76.451c3.261-8.306 7.739-8.873 11.199-.539 3.116 7.456 4.251 15.96 9.098 20.41 6.918 6.917 20.921 6.69 27.838 13.607 6.888 6.888 6.66 20.892 13.576 27.808 6.89 6.889 20.921 6.661 27.809 13.579 6.89 6.887 6.69 20.919 13.579 27.808 6.094 6.095 17.66 6.747 25.115 11.424 2.977 1.871 4.621 5.018-.256 6.945l-81.44 31.776-41.925-30.841z" fill="#ffe07d"></path>
      <path d="M84.694 294.926L295.99 83.628c15.137-15.165 39.942-15.165 55.108 0l76.366 76.367c15.166 15.166 15.166 39.969 0 55.135L216.168 426.427c-15.166 15.167-39.97 15.167-55.107 0l-76.367-76.366c-15.166-15.166-15.166-39.97 0-55.135z" fill="#ee6161"></path>
      <path d="M310.957 74.331c13.608-4.593 29.341-1.503 40.141 9.297l76.366 76.367c15.166 15.166 15.166 39.969 0 55.135L216.168 426.427c-10.801 10.8-26.534 13.918-40.14 9.298 5.471-1.843 10.602-4.961 14.938-9.298L402.29 215.129c15.141-15.166 15.141-39.969 0-55.135l-76.392-76.367a38.826 38.826 0 00-14.941-9.296z" fill="#e94444"></path>
      <path d="M84.694 350.061l-18.142 7.058 63.61 63.611c3.202 3.77 3.884 8.277 2.693 13.38l-20.014 51.279c4.167 6.179 5.187 15.562 9.072 22.054 1.981 3.345 5.071 6.237 7.056 1.105l32.091-82.121zM374.089 24.78l6.857-17.604c3.261-8.306 7.739-8.873 11.199-.539 3.116 7.456 4.251 15.96 9.098 20.41 6.918 6.917 20.921 6.69 27.838 13.607 6.888 6.888 6.66 20.892 13.576 27.808 6.89 6.889 20.921 6.661 27.809 13.579 6.89 6.887 6.69 20.919 13.579 27.808 6.094 6.095 17.66 6.747 25.115 11.424 2.977 1.871 4.621 5.018-.256 6.945l-81.44 31.776-7.059-7.058 63.3-24.718c4.875-1.928 3.26-5.075.254-6.945-7.427-4.677-19.02-5.329-25.113-11.424-6.89-6.888-6.663-20.92-13.578-27.808-6.89-6.917-20.922-6.69-27.81-13.579-6.889-6.916-6.69-20.92-13.58-27.808-6.914-6.917-20.919-6.69-27.806-13.607a15.01 15.01 0 01-1.983-2.267z" fill="#ffd064"></path>
    </g>
  </symbol>
</svg>